<svg xmlns="http://www.w3.org/2000/svg" width="793" height="70" viewBox="0 0 793 70" role="img" aria-label="MindsLeap x Founders Space">
  <title>MindsLeap x Founders Space</title>
  <rect width="793" height="70" fill="none"/>
  <g fill="#1e477c">
    <path d="M36.1 18.2c4.7-6.4 17.5-10.3 27.1-3.5 10.2 7.6 13.9 22.3 11.1 44.1H59.5c1.7-4.3 2.6-8.4 2.6-12.3 0-5.8 0-6.3-1.3-10.3-1.3-4-2-5.3-4.9-8.6-1.6-1.4-4.8-3.9-9.7-.8-3.6 3.6-3.6 11.1-2.5 17.3.5 3.1 1.8 8.1 3.8 14.7H30.2c-.3-10.5-3.7-15.8-10.3-15.8S9.9 48.3 9.7 58.8H-2.8c.7-6.4.7-16.6 8.7-23.9 7.5-5.8 15.6-6.6 24.2-2.4.8-5.3 2.7-10.1 6-14.3z" transform="translate(22 6) scale(.82)"/>
    <circle cx="30.1" cy="25.2" r="5.5"/>
    <text x="92" y="45" font-family="Inter, Arial, Helvetica, sans-serif" font-size="34" font-weight="800" letter-spacing="0">MindsLeap</text>
    <text x="312" y="44" font-family="Inter, Arial, Helvetica, sans-serif" font-size="28" font-weight="500" letter-spacing="0">×</text>
    <text x="354" y="45" font-family="Inter, Arial, Helvetica, sans-serif" font-size="30" font-weight="800" letter-spacing="1.5">FOUNDERS SPACE</text>
  </g>
</svg>
